<?xml version="1.0" encoding="utf-8"?>
<!-- Svg Vector Icons : http://www.onlinewebfonts.com/icon -->
<!DOCTYPE svg PUBLIC "-//W3C//DTD SVG 1.1//EN" "http://www.w3.org/Graphics/SVG/1.1/DTD/svg11.dtd">
<svg  fill='#8d8d8d' version="1.1" xmlns="http://www.w3.org/2000/svg" xmlns:xlink="http://www.w3.org/1999/xlink" x="0px" y="0px" viewBox="0 0 1000 1000" enable-background="new 0 0 1000 1000" xml:space="preserve">
<metadata> Svg Vector Icons : http://www.onlinewebfonts.com/icon </metadata>
<g><path d="M143.2,478.2h156.7v36.8H143.2V478.2L143.2,478.2z"/><path d="M143.2,579h156.7v36.8H143.2V579L143.2,579z"/><path d="M143.2,682.9h156.7v36.8H143.2V682.9L143.2,682.9z"/><path d="M143.2,786.9h156.7v36.8H143.2V786.9L143.2,786.9z"/><path d="M413.4,278.3h250.5v36.8H413.4V278.3z"/><path d="M413.4,399.2h135.2v36.8H413.4V399.2z"/><path d="M413.4,520H491v36.8h-77.6V520z"/><path d="M799.4,571.8c0-38.8-31.6-70.4-70.4-70.4c-38.8,0-70.3,31.6-70.3,70.4c0,38.8,31.6,70.4,70.3,70.4C767.8,642.2,799.4,610.6,799.4,571.8z M729,605.4c-18.5,0-33.6-15.1-33.6-33.6c0-18.5,15.1-33.6,33.6-33.6c18.6,0,33.6,15.1,33.6,33.6C762.7,590.3,747.6,605.4,729,605.4z"/><path d="M757.6,894.7c17.4-22.1,48-62.3,78.4-107.7c62.9-94,94.8-164.8,94.8-210.5c0-111.3-90.5-201.8-201.8-201.8s-201.8,90.5-201.8,201.8c0,45.7,31.9,116.6,94.8,210.5c30.4,45.3,61,85.6,78.4,107.7H596.3H489.4V785.3h78.1v-36.8H452.7v146.1H374V370.3V178.4h213.6h115.6v161.5h36.8V141.7H587.7V68.6H337.3v73.1v36.8v118.9H117.2v73h-48v524.3H10v36.8h59.1h268.1H374h78.7h143.6h125.4H990v-36.8H757.6z M374,105.3h176.9v36.3H374V105.3z M153.9,334h176.9v36.3H153.9V334z M105.9,894.7V407.1h11.3h220.1v487.6H105.9z M564,576.5c0-91,74-165,165.1-165c91,0,165.1,74,165.1,165c0,71.1-108.5,223.5-165.1,295.3C672.5,799.9,564,647.6,564,576.5z"/></g>
</svg>