<svg fill='#8d8d8d' xmlns="http://www.w3.org/2000/svg" shape-rendering="geometricPrecision" text-rendering="geometricPrecision" image-rendering="optimizeQuality" fill-rule="evenodd" clip-rule="evenodd" viewBox="0 0 292 511.72"><path d="M58.02 0h175.97c16 0 30.61 6.53 41.02 17.02C285.56 27.58 292 42.11 292 58.03V453.7c0 16.02-6.52 30.62-17 41.01-10.57 10.59-25.09 17.01-41.01 17.01H58.02c-16.01 0-30.62-6.52-41.01-17C6.44 484.16 0 469.63 0 453.7V57.95c0-16.01 6.52-30.61 17-41.03C27.56 6.37 42.01 0 58.02 0zm141.67 319.02c0-2.26 1.85-4.1 4.11-4.1 2.27 0 4.11 1.84 4.11 4.1v18.8c0 2.26-1.84 4.11-4.11 4.11-2.26 0-4.11-1.85-4.11-4.11v-18.8zm-24.28-8.3a4.11 4.11 0 0 1 4.11-4.11c2.26 0 4.1 1.84 4.1 4.11v27.1c0 2.26-1.84 4.11-4.1 4.11-2.27 0-4.11-1.85-4.11-4.11v-27.1zm-61.05-16.64a4.89 4.89 0 0 1-.79-.52l-22.72-18.57c-2.43-2-5.19-3.39-7.79-3.9l-.14-.03c-1.59-.29-3.06-.25-4.21.22-.97.4-1.8 1.19-2.36 2.43-.74 1.62-1.08 3.94-.88 7.06.18 2.76 1.14 5.8 2.43 8.7 1.89 4.31 4.47 8.25 6.36 10.78l38.52 58.28c.45.68.72 1.43.8 2.19.76 6.26 2.11 10.98 4.09 13.96l.17.26c1.4 1.97 3.2 2.97 5.41 2.91 19.52 0 40.73-.82 60.04 0 3.7-.06 7.09-1.16 10.15-3.27 3.43-2.36 6.57-6.03 9.39-10.98l.73-1.24c7.42-12.8 14.64-25.22 15.39-39.97-.16-7.28-.45-14.56-.39-21.84.14-12.54.36-31.71-10.05-33.59h-6.75c.21 5.35-.11 10.87-.39 15.89-.16 2.94-.32 5.69-.32 8.27a5.034 5.034 0 0 1-10.07 0c0-2.34.18-5.46.37-8.82.7-12.46 1.64-29.15-7.06-30.8h-6.61c-.44 0-.86-.05-1.27-.16.41 6.01.06 12.37-.27 18.06-.16 2.95-.32 5.69-.32 8.27 0 2.78-2.25 5.03-5.03 5.03-2.78 0-5.04-2.25-5.04-5.03 0-2.34.18-5.45.37-8.82.7-12.46 1.64-29.14-7.07-30.8h-6.6c-.45 0-.89-.06-1.31-.17v25.97c0 2.78-2.26 5.03-5.04 5.03-2.78 0-5.03-2.25-5.03-5.03V211.6c0-8.75-3.58-14.28-8.13-16.58-1.68-.85-3.48-1.28-5.25-1.28-1.76 0-3.56.42-5.22 1.27-4.52 2.29-8.04 7.84-8.04 16.8v91.56c0 2.78-2.26 5.04-5.04 5.04-2.78 0-5.03-2.26-5.03-5.04v-9.29zm96.21-37.01c.43-.11.88-.18 1.34-.18h6.94c.4 0 .79.05 1.16.14 19.03 3.05 18.76 27.58 18.57 43.57-.05 7.4.35 14.77.4 22.17-.86 17.26-8.68 30.74-16.73 44.62l-.69 1.2c-3.56 6.24-7.71 11.01-12.42 14.25-4.75 3.27-10.03 4.97-15.8 5.03l-59.97.03c-5.84.09-10.41-2.4-13.8-7.27l-.27-.37c-2.73-4.1-4.56-9.88-5.54-17.17l-37.57-56.84c-2.22-2.97-5.23-7.59-7.49-12.73-1.7-3.84-2.99-8.02-3.25-12.12-.32-4.85.35-8.77 1.73-11.82 1.72-3.79 4.45-6.28 7.75-7.62 3.03-1.23 6.45-1.42 9.89-.78l.21.04c4.18.84 8.52 2.97 12.22 6.02l17.11 14v-69.43c0-13.31 5.94-21.9 13.54-25.77 3.06-1.55 6.42-2.32 9.79-2.32 3.36 0 6.71.79 9.77 2.33 7.67 3.88 13.68 12.47 13.68 25.55v16.56c.42-.11.86-.17 1.31-.17h6.94c.4 0 .78.04 1.16.13 8.32 1.34 12.48 6.88 14.44 14.1.78-.5 1.7-.79 2.69-.79h6.94c.4 0 .79.05 1.16.14 8.86 1.42 12.99 7.61 14.79 15.5zm-65.39-105.14c0 2.06-.83 3.9-2.16 5.23l-.1.09a7.381 7.381 0 0 1-5.13 2.08c-2.05 0-3.9-.83-5.23-2.16a7.418 7.418 0 0 1-2.17-5.24v-24.48c0-2.05.84-3.89 2.16-5.22 1.35-1.34 3.22-2.18 5.24-2.18 2.05 0 3.9.84 5.22 2.16l.09.11a7.363 7.363 0 0 1 2.08 5.13v24.48zm-56.6 48.82c2.05 0 3.9.84 5.23 2.16a7.43 7.43 0 0 1 2.17 5.23c0 2.06-.84 3.9-2.16 5.23a7.436 7.436 0 0 1-5.24 2.17H64.1c-2.05 0-3.9-.83-5.22-2.16a7.385 7.385 0 0 1-2.18-5.24c0-2.04.84-3.88 2.16-5.21a7.438 7.438 0 0 1 5.24-2.18h24.48zm18.27-35.91a7.447 7.447 0 0 1 2.16 5.24 7.39 7.39 0 0 1-7.4 7.4 7.36 7.36 0 0 1-5.22-2.16l-17.25-17.33a7.358 7.358 0 0 1-2.17-5.23c0-1.89.73-3.8 2.17-5.23a7.375 7.375 0 0 1 5.23-2.17c1.9 0 3.8.73 5.23 2.17l17.25 17.31zm78.88 50.7c-2.05 0-3.89-.83-5.22-2.16l-.09-.1a7.405 7.405 0 0 1-2.08-5.14c0-2.04.84-3.88 2.16-5.21a7.362 7.362 0 0 1 5.23-2.18h24.49c2.05 0 3.9.84 5.22 2.16a7.388 7.388 0 0 1 2.17 5.23 7.395 7.395 0 0 1-7.39 7.4h-24.49zm-7.79-41.57a7.398 7.398 0 0 1-5.24 2.17c-1.89 0-3.79-.73-5.23-2.16a7.388 7.388 0 0 1-2.16-5.24c0-1.89.72-3.78 2.16-5.22l17.24-17.33a7.382 7.382 0 0 1 5.23-2.16c1.9 0 3.79.72 5.23 2.15a7.356 7.356 0 0 1 2.17 5.24c0 1.89-.72 3.79-2.16 5.23l-17.24 17.32zm-31.93 275.32c13.13 0 23.85 10.57 23.85 23.85 0 13.14-10.57 23.87-23.85 23.87-8.16 0-15.39-4.08-19.7-10.35a23.856 23.856 0 0 1-4.17-13.52c0-13.12 10.57-23.85 23.87-23.85zM14.38 431.13l263.24-.01V63.28H14.38v367.85z"/></svg>